<svg xmlns="http://www.w3.org/2000/svg" width="230.499" height="35">
    <defs>
        <style>
            .cls-1{fill:#181b21}
        </style>
    </defs>
    <g id="Group_26" data-name="Group 26" transform="translate(-685.25 -38.5)">
        <g id="TESLA" transform="translate(685.25 51)">
            <path id="Path_62" data-name="Path 62" class="cls-1" d="M754.665 37.257v6.577h2.1v-4.385h7.689v4.385h2.1v-6.577h-11.889m1.862-2.132h8.109a2.961 2.961 0 0 0 2.192-2.192h-12.493a3.057 3.057 0 0 0 2.192 2.192m-8.259 8.71a3.108 3.108 0 0 0 1.862-2.135h-9.46v-8.74h-2.132v10.874h9.731m-25.5-8.74h7.508a3.321 3.321 0 0 0 2.313-2.132H720.7v6.427h9.731v2.252H722.8a4.3 4.3 0 0 0-2.733 2.192h12.464v-6.576H722.8l-.03-2.162m-18.5.03h8.109a2.915 2.915 0 0 0 2.192-2.192h-12.524a3.047 3.047 0 0 0 2.222 2.192m0 4.295h8.109a2.915 2.915 0 0 0 2.192-2.192h-12.523a3.047 3.047 0 0 0 2.222 2.192m0 4.415h8.109a2.915 2.915 0 0 0 2.192-2.192h-12.523a3 3 0 0 0 2.222 2.192" transform="translate(-683.156 -32.932)"/>
            <g id="Group_24" data-name="Group 24">
                <path id="Path_63" data-name="Path 63" class="cls-1" d="M251.287 32.962a3.019 3.019 0 0 0 2.192 2.162h3.421l.18.06V43.8h2.132v-8.62l.18-.06h3.424a3.068 3.068 0 0 0 2.192-2.162v-.03l-13.725.03" transform="translate(-251.287 -32.932)"/>
            </g>
        </g>
        <g id="Group_25" data-name="Group 25" transform="translate(845.039 45)">
            <path id="Path_64" data-name="Path 64" class="cls-1" d="M131.051 22.057a1.593 1.593 0 0 0-.4-1.176 4.585 4.585 0 0 0-1.447-.826 6.741 6.741 0 0 1-2.754-1.7 3.419 3.419 0 0 1-.839-2.3 3.23 3.23 0 0 1 1.14-2.583 4.741 4.741 0 0 1 4.988-.481 3.428 3.428 0 0 1 1.412 1.394 4.185 4.185 0 0 1 .494 2.046h-2.561a2.112 2.112 0 0 0-.38-1.359 1.332 1.332 0 0 0-1.1-.468 1.374 1.374 0 0 0-1.049.4 1.5 1.5 0 0 0-.376 1.071 1.321 1.321 0 0 0 .419.949 4.84 4.84 0 0 0 1.486.879 6.371 6.371 0 0 1 2.706 1.652 3.682 3.682 0 0 1 .843 2.492 3.287 3.287 0 0 1-1.058 2.6 4.187 4.187 0 0 1-2.876.935 4.949 4.949 0 0 1-2.247-.507 3.805 3.805 0 0 1-1.587-1.451 4.215 4.215 0 0 1-.573-2.229h2.579a2.425 2.425 0 0 0 .429 1.6 1.75 1.75 0 0 0 1.4.5q1.346 0 1.346-1.425" transform="translate(-102.643 -9.043)"/>
            <path id="Rectangle_1" data-name="Rectangle 1" class="cls-1" transform="translate(33.443 3.625)" d="M0 0h2.57v12.728H0z"/>
            <path id="Path_65" data-name="Path 65" class="cls-1" d="M170.587 23.557h5.245v2.133h-8.253v-1.547l5.193-9.039h-5.245v-2.142h8.208v1.512z" transform="translate(-129.119 -9.337)"/>
            <path id="Path_66" data-name="Path 66" class="cls-1" d="M202.291 20.183h-4v3.375h4.738v2.133h-7.308V12.962h7.291V15.1h-4.721v3.007h4z" transform="translate(-146.792 -9.337)"/>
            <path id="Rectangle_2" data-name="Rectangle 2" class="cls-1" transform="translate(59.495 3.625)" d="M0 0h.997v12.728H0z"/>
            <path id="Path_67" data-name="Path 67" class="cls-1" d="M233.962 25.69V12.962h3a4.213 4.213 0 0 1 3.278 1.325 5.343 5.343 0 0 1 1.242 3.65V20.6a5.37 5.37 0 0 1-1.219 3.741 4.383 4.383 0 0 1-3.423 1.347zm1-11.784v10.858h1.932a3.347 3.347 0 0 0 2.641-1.053 4.486 4.486 0 0 0 .961-3.011v-2.667a4.586 4.586 0 0 0-.913-3.043 3.264 3.264 0 0 0-2.644-1.084z" transform="translate(-170.77 -9.337)"/>
            <path id="Path_68" data-name="Path 68" class="cls-1" d="m65.891 13.055 3.864 11.225 3.882-11.225h1.323v12.758h-1v-5.529l.088-5.564-3.907 11.093h-.771l-3.89-11.041.087 5.477v5.564h-1V13.055z" transform="translate(-64.568 -9.395)"/>
            <path id="Path_69" data-name="Path 69" class="cls-1" d="m103.433 19.994 3.18-6.94h1.148l-3.838 7.957v4.8h-1v-4.8L99.1 13.054h1.174z" transform="translate(-86.215 -9.395)"/>
            <path id="Rectangle_3" data-name="Rectangle 3" class="cls-1" transform="translate(33.443)" d="M0 0h2.57v2.571H0z"/>
        </g>
        <path id="Line_1" data-name="Line 1" transform="translate(807.5 38.5)" style="fill:none;stroke:#cbcbcb" d="M0 0v35"/>
    </g>
</svg>
